<svg xmlns="http://www.w3.org/2000/svg" width="1000" height="650" viewBox="0 0 1000 650" role="img" aria-label="Trà sữa trân châu">
  <rect width="1000" height="650" rx="40" fill="#f8f9fa"/>

  <g transform="translate(250 120)">
    <circle cx="250" cy="280" r="240" fill="#0d6efd" opacity="0.07"/>

    <g transform="translate(110 40)">
      <path d="M60 40h360l-40 420H100L60 40z" fill="#ffffff" stroke="#dee2e6" stroke-width="4"/>
      <path d="M90 90h300l-28 310H118L90 90z" fill="#ffc107" opacity="0.22"/>
      <path d="M112 110h256l-22 270H134l-22-270z" fill="#fd7e14" opacity="0.10"/>

      <g fill="#6c757d" opacity="0.55">
        <circle cx="150" cy="390" r="18"/>
        <circle cx="210" cy="410" r="16"/>
        <circle cx="280" cy="392" r="17"/>
        <circle cx="340" cy="414" r="15"/>
        <circle cx="240" cy="440" r="16"/>
      </g>

      <rect x="80" y="0" width="320" height="60" rx="30" fill="#0d6efd" opacity="0.10"/>
      <rect x="110" y="16" width="160" height="12" rx="6" fill="#0d6efd" opacity="0.22"/>

      <path d="M340 -20c12-20 26-32 42-36 22-6 42 2 60 26" fill="none" stroke="#0d6efd" stroke-opacity="0.22" stroke-width="10" stroke-linecap="round"/>
      <path d="M380 -40v140" stroke="#0d6efd" stroke-opacity="0.22" stroke-width="16" stroke-linecap="round"/>
    </g>
  </g>

  <g transform="translate(70 60)" opacity="0.65">
    <rect x="0" y="0" width="320" height="50" rx="25" fill="#0d6efd" opacity="0.10"/>
    <rect x="24" y="18" width="210" height="12" rx="6" fill="#0d6efd" opacity="0.22"/>
  </g>
</svg>
