<svg xmlns="http://www.w3.org/2000/svg" width="1200" height="800" viewBox="0 0 1200 800" role="img" aria-label="Minh hoạ đồ ăn">
  <defs>
    <linearGradient id="g1" x1="0" y1="0" x2="1" y2="1">
      <stop offset="0" stop-color="#0d6efd" stop-opacity="0.20"/>
      <stop offset="1" stop-color="#0d6efd" stop-opacity="0.04"/>
    </linearGradient>
    <linearGradient id="g2" x1="0" y1="1" x2="1" y2="0">
      <stop offset="0" stop-color="#0d6efd" stop-opacity="0.18"/>
      <stop offset="1" stop-color="#0d6efd" stop-opacity="0.02"/>
    </linearGradient>
    <filter id="blur" x="-20%" y="-20%" width="140%" height="140%">
      <feGaussianBlur stdDeviation="18"/>
    </filter>
  </defs>

  <rect width="1200" height="800" fill="#ffffff"/>

  <circle cx="220" cy="210" r="160" fill="url(#g1)" filter="url(#blur)"/>
  <circle cx="980" cy="170" r="190" fill="url(#g2)" filter="url(#blur)"/>
  <circle cx="890" cy="640" r="210" fill="url(#g1)" filter="url(#blur)"/>

  <g transform="translate(170 170)">
    <rect x="0" y="0" rx="28" ry="28" width="860" height="460" fill="#f8f9fa" stroke="#dee2e6"/>

    <g transform="translate(65 75)">
      <rect x="0" y="210" width="230" height="120" rx="28" fill="#ffffff" stroke="#dee2e6"/>
      <rect x="24" y="238" width="182" height="16" rx="8" fill="#0d6efd" opacity="0.35"/>
      <rect x="24" y="265" width="120" height="12" rx="6" fill="#0d6efd" opacity="0.22"/>
      <rect x="24" y="286" width="160" height="12" rx="6" fill="#0d6efd" opacity="0.14"/>

      <g transform="translate(395 20)">
        <rect x="0" y="0" width="300" height="310" rx="34" fill="#ffffff" stroke="#dee2e6"/>
        <rect x="38" y="58" width="224" height="18" rx="9" fill="#0d6efd" opacity="0.25"/>

        <g transform="translate(60 112)">
          <rect x="0" y="96" width="180" height="24" rx="12" fill="#ffc107" opacity="0.30"/>
          <rect x="10" y="78" width="160" height="28" rx="14" fill="#198754" opacity="0.25"/>
          <rect x="0" y="52" width="180" height="32" rx="16" fill="#dc3545" opacity="0.22"/>
          <rect x="8" y="30" width="164" height="28" rx="14" fill="#fd7e14" opacity="0.20"/>
          <rect x="0" y="0" width="180" height="34" rx="17" fill="#ffc107" opacity="0.35"/>
        </g>

        <circle cx="252" cy="254" r="26" fill="#0d6efd" opacity="0.14"/>
      </g>

      <g transform="translate(10 40)">
        <rect x="0" y="0" width="250" height="150" rx="28" fill="#ffffff" stroke="#dee2e6"/>
        <circle cx="62" cy="74" r="44" fill="#0d6efd" opacity="0.12"/>
        <rect x="118" y="50" width="110" height="14" rx="7" fill="#0d6efd" opacity="0.22"/>
        <rect x="118" y="72" width="84" height="12" rx="6" fill="#0d6efd" opacity="0.15"/>
        <rect x="118" y="92" width="96" height="12" rx="6" fill="#0d6efd" opacity="0.12"/>
      </g>
    </g>

    <g transform="translate(580 338)">
      <rect x="0" y="0" width="220" height="92" rx="22" fill="#0d6efd" opacity="0.10"/>
      <rect x="26" y="26" width="168" height="12" rx="6" fill="#0d6efd" opacity="0.25"/>
      <rect x="26" y="46" width="108" height="10" rx="5" fill="#0d6efd" opacity="0.18"/>
      <rect x="26" y="62" width="128" height="10" rx="5" fill="#0d6efd" opacity="0.13"/>
    </g>
  </g>

  <g opacity="0.55">
    <path d="M80 640c120-80 260-80 420 0" fill="none" stroke="#0d6efd" stroke-opacity="0.15" stroke-width="10" stroke-linecap="round"/>
    <path d="M720 90c120-80 260-80 420 0" fill="none" stroke="#0d6efd" stroke-opacity="0.12" stroke-width="10" stroke-linecap="round"/>
  </g>
</svg>
