<svg xmlns="http://www.w3.org/2000/svg" viewBox="0 0 900 900" role="img" aria-label="Cute pets illustration">
  <defs>
    <linearGradient id="bg" x1="0" x2="1" y1="0" y2="1">
      <stop offset="0" stop-color="#ffffff"/>
      <stop offset="1" stop-color="#f8fbff"/>
    </linearGradient>
    <linearGradient id="blob" x1="0" x2="1" y1="0" y2="1">
      <stop offset="0" stop-color="#d9e6ff"/>
      <stop offset="1" stop-color="#c2d8ff"/>
    </linearGradient>
    <linearGradient id="y" x1="0" x2="1" y1="0" y2="1">
      <stop offset="0" stop-color="#ffe27a"/>
      <stop offset="1" stop-color="#ffd23c"/>
    </linearGradient>
    <filter id="shadow" x="-20%" y="-20%" width="140%" height="140%">
      <feDropShadow dx="0" dy="14" stdDeviation="18" flood-color="#0b1220" flood-opacity="0.18"/>
    </filter>
  </defs>

  <path d="M214 456c-74-132 6-302 160-340 154-38 286 44 330 154 44 112 190 126 198 254 8 128-86 228-214 262-128 34-206 120-348 90-142-30-70-228-126-420z" fill="url(#blob)"/>
  <rect x="120" y="130" width="660" height="660" rx="84" fill="url(#bg)" stroke="#0f172a" stroke-opacity="0.10" stroke-width="6" filter="url(#shadow)"/>

  <!-- cat front -->
  <g transform="translate(200 330)">
    <path d="M80 156c0-86 70-156 156-156s156 70 156 156c0 56-28 106-76 134v132c0 26-22 48-48 48H204c-26 0-48-22-48-48V290c-48-28-76-78-76-134z" fill="#1f2430"/>
    <path d="M140 86 98 44v92" fill="#1f2430"/>
    <path d="M332 86 374 44v92" fill="#1f2430"/>
    <circle cx="182" cy="190" r="34" fill="#fff" opacity="0.95"/>
    <circle cx="290" cy="190" r="34" fill="#fff" opacity="0.95"/>
    <circle cx="182" cy="190" r="12" fill="#0b1220"/>
    <circle cx="290" cy="190" r="12" fill="#0b1220"/>
    <path d="M228 220c0 14 24 14 24 0 0-14-24-14-24 0z" fill="url(#y)"/>
    <path d="M160 232h-52" stroke="#0b1220" stroke-opacity="0.35" stroke-width="6" stroke-linecap="round"/>
    <path d="M160 254h-52" stroke="#0b1220" stroke-opacity="0.35" stroke-width="6" stroke-linecap="round"/>
    <path d="M320 232h52" stroke="#0b1220" stroke-opacity="0.35" stroke-width="6" stroke-linecap="round"/>
    <path d="M320 254h52" stroke="#0b1220" stroke-opacity="0.35" stroke-width="6" stroke-linecap="round"/>
    <path d="M186 278c28 22 76 22 104 0" fill="none" stroke="#0b1220" stroke-opacity="0.55" stroke-width="10" stroke-linecap="round"/>
  </g>

  <!-- tiny dog side -->
  <g transform="translate(610 560)">
    <path d="M26 170c0-70 56-126 126-126 70 0 126 56 126 126 0 44-22 84-58 108v70c0 20-16 36-36 36H120c-20 0-36-16-36-36v-70c-36-24-58-64-58-108z" fill="#2a2f3a"/>
    <path d="M68 108c-22-44-82-46-112-14-28 30-22 72 6 92" fill="#2a2f3a"/>
    <circle cx="122" cy="188" r="22" fill="#fff" opacity="0.95"/>
    <circle cx="190" cy="188" r="22" fill="#fff" opacity="0.95"/>
    <circle cx="122" cy="188" r="8" fill="#0b1220"/>
    <circle cx="190" cy="188" r="8" fill="#0b1220"/>
    <path d="M150 214c0 12 20 12 20 0 0-12-20-12-20 0z" fill="#0b1220" opacity="0.8"/>
    <circle cx="98" cy="222" r="12" fill="url(#y)" opacity="0.8"/>
  </g>

  <g fill="none" stroke="#0b1220" stroke-opacity="0.25" stroke-width="8" stroke-linecap="round">
    <path d="M190 220h44"/>
    <path d="M212 198v44"/>
  </g>
</svg>
