<svg xmlns="http://www.w3.org/2000/svg" viewBox="0 0 900 900" role="img" aria-label="Playful pets illustration">
  <defs>
    <linearGradient id="bg" x1="0" x2="1" y1="0" y2="1">
      <stop offset="0" stop-color="#ffffff"/>
      <stop offset="1" stop-color="#f6f9ff"/>
    </linearGradient>
    <linearGradient id="blob" x1="0" x2="1" y1="0" y2="1">
      <stop offset="0" stop-color="#d9e6ff"/>
      <stop offset="1" stop-color="#c6dbff"/>
    </linearGradient>
    <linearGradient id="y" x1="0" x2="1" y1="0" y2="1">
      <stop offset="0" stop-color="#ffe27a"/>
      <stop offset="1" stop-color="#ffd23c"/>
    </linearGradient>
    <filter id="shadow" x="-20%" y="-20%" width="140%" height="140%">
      <feDropShadow dx="0" dy="14" stdDeviation="18" flood-color="#0b1220" flood-opacity="0.18"/>
    </filter>
  </defs>

  <path d="M166 520c-86-138-12-330 150-374 162-44 310 44 366 166 56 122 210 120 224 266 14 146-84 264-226 304-142 40-226 140-388 98-162-42-52-258-126-460z" fill="url(#blob)"/>
  <rect x="120" y="130" width="660" height="660" rx="84" fill="url(#bg)" stroke="#0f172a" stroke-opacity="0.10" stroke-width="6" filter="url(#shadow)"/>

  <!-- dog body -->
  <g transform="translate(180 300)">
    <path d="M110 330c0-120 96-216 216-216s216 96 216 216v84c0 30-24 54-54 54H164c-30 0-54-24-54-54v-84Z" fill="#1f2430"/>
    <path d="M206 154c-30-60-110-64-152-20-40 42-34 102 0 132" fill="#1f2430"/>
    <path d="M492 154c30-60 110-64 152-20 40 42 34 102 0 132" fill="#1f2430"/>
    <circle cx="258" cy="266" r="40" fill="#fff" opacity="0.95"/>
    <circle cx="394" cy="266" r="40" fill="#fff" opacity="0.95"/>
    <circle cx="258" cy="266" r="14" fill="#0b1220"/>
    <circle cx="394" cy="266" r="14" fill="#0b1220"/>
    <path d="M308 322c0 22 36 22 36 0 0-22-36-22-36 0z" fill="#0b1220" opacity="0.85"/>
    <path d="M280 360c30 22 78 22 108 0" fill="none" stroke="#0b1220" stroke-opacity="0.55" stroke-width="10" stroke-linecap="round"/>
    <circle cx="210" cy="330" r="16" fill="url(#y)" opacity="0.85"/>
    <circle cx="442" cy="330" r="16" fill="url(#y)" opacity="0.85"/>
  </g>

  <!-- small cat -->
  <g transform="translate(610 560)">
    <path d="M40 160c0-62 50-112 112-112s112 50 112 112c0 36-18 68-46 88v86c0 18-14 32-32 32H118c-18 0-32-14-32-32v-86c-28-20-46-52-46-88z" fill="#2a2f3a"/>
    <path d="M80 88 48 54v70" fill="#2a2f3a"/>
    <path d="M224 88 256 54v70" fill="#2a2f3a"/>
    <circle cx="112" cy="164" r="24" fill="#fff" opacity="0.95"/>
    <circle cx="192" cy="164" r="24" fill="#fff" opacity="0.95"/>
    <circle cx="112" cy="164" r="8" fill="#0b1220"/>
    <circle cx="192" cy="164" r="8" fill="#0b1220"/>
    <path d="M148 190c0 10 18 10 18 0 0-10-18-10-18 0z" fill="url(#y)"/>
  </g>

  <!-- sparkles -->
  <g fill="none" stroke="#0b1220" stroke-opacity="0.25" stroke-width="8" stroke-linecap="round">
    <path d="M170 210h44"/>
    <path d="M192 188v44"/>
    <path d="M724 234h44"/>
    <path d="M746 212v44"/>
  </g>
</svg>
