<svg xmlns="http://www.w3.org/2000/svg" viewBox="0 0 900 900" role="img" aria-label="Dog and cat illustration">
  <defs>
    <linearGradient id="bg" x1="0" x2="1" y1="0" y2="1">
      <stop offset="0" stop-color="#ffffff"/>
      <stop offset="1" stop-color="#f7fbff"/>
    </linearGradient>
    <linearGradient id="blob" x1="0" x2="1" y1="0" y2="1">
      <stop offset="0" stop-color="#d9e6ff"/>
      <stop offset="1" stop-color="#bcd2ff"/>
    </linearGradient>
    <linearGradient id="y" x1="0" x2="1" y1="0" y2="1">
      <stop offset="0" stop-color="#ffe27a"/>
      <stop offset="1" stop-color="#ffd23c"/>
    </linearGradient>
    <filter id="shadow" x="-20%" y="-20%" width="140%" height="140%">
      <feDropShadow dx="0" dy="14" stdDeviation="18" flood-color="#0b1220" flood-opacity="0.18"/>
    </filter>
  </defs>

  <path d="M192 474c-84-140-6-320 154-360 160-40 300 44 348 162 48 118 206 120 216 260 10 140-92 252-232 292-140 40-224 136-374 96-150-40-58-256-112-450z" fill="url(#blob)" opacity="0.95"/>
  <rect x="120" y="130" width="660" height="660" rx="84" fill="url(#bg)" stroke="#0f172a" stroke-opacity="0.10" stroke-width="6" filter="url(#shadow)"/>

  <!-- big dog -->
  <g transform="translate(170 270)">
    <path d="M70 80c0-68 56-124 124-124h164c68 0 124 56 124 124v180c0 92-74 166-166 166H236c-92 0-166-74-166-166V80z" fill="#1f2430"/>
    <path d="M110 66c-22-46-82-50-114-18-30 30-26 74 0 94" fill="#1f2430"/>
    <path d="M446 66c22-46 82-50 114-18 30 30 26 74 0 94" fill="#1f2430"/>
    <circle cx="210" cy="170" r="34" fill="#fff" opacity="0.95"/>
    <circle cx="342" cy="170" r="34" fill="#fff" opacity="0.95"/>
    <circle cx="210" cy="170" r="12" fill="#0b1220"/>
    <circle cx="342" cy="170" r="12" fill="#0b1220"/>
    <path d="M264 214c0 18 32 18 32 0 0-18-32-18-32 0z" fill="#0b1220" opacity="0.85"/>
    <path d="M236 254c26 20 68 20 94 0" fill="none" stroke="#0b1220" stroke-opacity="0.55" stroke-width="10" stroke-linecap="round"/>
    <circle cx="174" cy="224" r="14" fill="url(#y)" opacity="0.85"/>
    <circle cx="378" cy="224" r="14" fill="url(#y)" opacity="0.85"/>
  </g>

  <!-- small cat -->
  <g transform="translate(560 560)">
    <path d="M24 152c0-56 46-102 102-102s102 46 102 102c0 34-16 64-42 82v84c0 16-14 30-30 30H96c-16 0-30-14-30-30v-84c-26-18-42-48-42-82z" fill="#2a2f3a"/>
    <path d="M70 92 44 62v60" fill="#2a2f3a"/>
    <path d="M182 92 208 62v60" fill="#2a2f3a"/>
    <circle cx="98" cy="156" r="20" fill="#fff" opacity="0.95"/>
    <circle cx="154" cy="156" r="20" fill="#fff" opacity="0.95"/>
    <circle cx="98" cy="156" r="7" fill="#0b1220"/>
    <circle cx="154" cy="156" r="7" fill="#0b1220"/>
    <path d="M122 178c0 10 16 10 16 0 0-10-16-10-16 0z" fill="url(#y)"/>
  </g>

  <g fill="none" stroke="#0b1220" stroke-opacity="0.22" stroke-width="8" stroke-linecap="round">
    <path d="M180 220h44"/>
    <path d="M202 198v44"/>
    <path d="M724 260h44"/>
    <path d="M746 238v44"/>
  </g>
</svg>
